<svg width="24" height="24" viewBox="0 0 24 24" fill="none" xmlns="http://www.w3.org/2000/svg">
<g clip-path="url(#clip0_939_15679)">
<path d="M23.311 8.00156H0.689087C0.937524 7.30312 1.2469 6.63281 1.61252 6C3.68909 2.41875 7.57034 0 12 0C16.4297 0 20.311 2.41406 22.3875 6C22.7578 6.63281 23.0672 7.29844 23.311 8.00156Z" fill="#CD1225"/>
<path d="M23.3109 15.9984C23.0625 16.6969 22.7531 17.3625 22.3875 17.9953C20.3109 21.5812 16.4296 24 12 24C7.56558 24 3.68901 21.5859 1.60776 18C1.24214 17.3672 0.932764 16.6969 0.684326 16.0031H23.3109V15.9984Z" fill="black"/>
<path d="M24 12C24 13.4016 23.7562 14.7516 23.3109 15.9985H0.689062C0.24375 14.7516 0 13.4016 0 12C0 10.5985 0.24375 9.24846 0.689062 8.00159H23.3156C23.7563 9.24846 24 10.5985 24 12Z" fill="white"/>
<path d="M10.6032 15.075C10.5938 15.0703 10.5798 15.0656 10.5704 15.0703L10.5235 15.0843C10.5095 15.089 10.5001 15.1078 10.5048 15.1218C10.5048 15.1218 10.5235 15.1453 10.5376 15.1453L10.5142 15.2296L10.3829 15.1968L10.4298 15.0562C10.4345 15.0468 10.4298 15.0328 10.4298 15.0328L10.3876 15.0187L10.3407 15.0328C10.3407 15.0328 10.3126 15.0562 10.3173 15.075C10.322 15.089 10.3313 15.0984 10.3313 15.0984L10.3173 15.1875L10.2282 15.164L10.322 14.85C10.322 14.85 10.322 14.8218 10.3079 14.8171L10.2704 14.8218C10.261 14.8312 10.2048 14.8359 10.1579 14.8312C10.1438 14.8312 10.1251 14.8406 10.1251 14.8406C10.1204 14.8734 10.1345 14.8921 10.1345 14.8921C10.1673 14.8968 10.2048 14.8968 10.2423 14.8921L10.1954 15.0421C10.0923 15.0468 10.0501 15.1359 10.0501 15.1359C10.0454 15.15 10.0454 15.1593 10.0454 15.164L10.0642 15.1828L10.172 15.2156H10.1767V15.2203L10.3126 15.2531C10.3173 15.2578 10.3173 15.2578 10.3173 15.2578L10.3313 15.2625H10.336L10.5142 15.3093H10.5235C10.5376 15.3093 10.5517 15.3 10.5563 15.2859L10.6032 15.1171V15.075ZM10.172 15.1359L10.1345 15.1218C10.1438 15.1125 10.1626 15.0984 10.1626 15.0984L10.172 15.1359Z" fill="#BF920D"/>
<path d="M11.2547 14.9953C11.2453 14.9812 11.2266 14.9812 11.2125 14.9953L11.1891 15.0187C11.1844 15.0234 11.1797 15.0328 11.1797 15.0328V15.1828C11.1797 15.3047 11.1375 15.4078 11.1281 15.4219C11.1281 15.4219 11.1141 15.4312 11.1047 15.4312C11.1047 15.4312 11.1047 15.3984 11.1094 15.3797C11.1094 15.3797 11.1094 15.3703 11.1047 15.3656C11.1 15.3515 11.0766 15.3281 11.0391 15.3281H11.0297C11.025 15.314 11.0203 15.3 11.011 15.2812L11.086 15.2578C11.086 15.2578 11.1 15.2437 11.1047 15.2344C11.1094 15.225 11.1047 15.2109 11.1 15.2062L11.0531 15.1547L11.0016 15.089C10.9969 15.0797 10.9875 15.0797 10.9875 15.0797C10.9688 15.075 10.9594 15.0797 10.9594 15.0797L10.9172 15.1219C10.9078 15.1312 10.8703 15.15 10.8375 15.1687C10.8281 15.1734 10.8235 15.1828 10.8235 15.1922L10.8328 15.2203L10.8985 15.2765C10.8844 15.2906 10.8703 15.3047 10.8516 15.3094C10.8235 15.314 10.7719 15.3 10.7344 15.2953C10.7438 15.2344 10.7156 15.1828 10.7156 15.1828C10.7156 15.1828 10.6875 15.1594 10.6735 15.1687C10.6594 15.1781 10.65 15.1969 10.65 15.1969C10.65 15.1969 10.6828 15.2719 10.6641 15.3187C10.65 15.3515 10.6125 15.3703 10.5563 15.3844L10.5328 15.4219C10.5375 15.4359 10.5516 15.4453 10.5656 15.4453L10.5703 15.4406C10.6406 15.4265 10.6875 15.3984 10.7156 15.3515C10.7485 15.3609 10.8141 15.375 10.8563 15.3703C10.8985 15.3656 10.9313 15.3375 10.95 15.3094C10.9594 15.3234 10.9641 15.3328 10.9641 15.3328C10.9641 15.3937 11.0063 15.3937 11.0344 15.3937H11.0391C11.0344 15.4359 11.0344 15.4781 11.0672 15.4922C11.0766 15.4969 11.0906 15.5015 11.0906 15.5015C11.1235 15.5015 11.1516 15.4922 11.1703 15.4734C11.1985 15.4453 11.2406 15.3187 11.2406 15.1875V15.0609L11.2547 15.0469C11.2641 15.0234 11.2641 15.0047 11.2547 14.9953ZM10.9547 15.2297L10.9078 15.1922C10.9313 15.1781 10.9547 15.164 10.9547 15.164L10.9735 15.15L11.0016 15.1875V15.1922L11.0156 15.2109L10.9547 15.2297Z" fill="#BF920D"/>
<path d="M11.3438 15.3891L11.3673 15.0937C11.3766 15.0984 11.3907 15.0937 11.4001 15.0844C11.4141 15.075 11.4141 15.0516 11.4001 15.0375L11.3673 15.0047L11.3345 14.9953C11.3204 15 11.311 15.0094 11.311 15.0094L11.2829 15.3797C11.2782 15.3984 11.2923 15.4125 11.311 15.4125C11.3298 15.4219 11.3438 15.4078 11.3438 15.3891Z" fill="#BF920D"/>
<path d="M12.2766 15.4219L12.2438 15.2859C12.2391 15.2766 12.2344 15.2719 12.2298 15.2672C12.2298 15.2672 12.211 15.2625 12.2016 15.2625C12.2016 15.2625 12.0891 15.3047 12.0751 15.3984H12.0282L12.0188 15.3141C12.0141 15.3 12.0048 15.2859 11.9907 15.2859L11.6719 15.2719V15.2344L11.6579 15.2109L11.6298 15.2062L11.5923 15.2203C11.5782 15.225 11.5688 15.2437 11.5735 15.2625C11.5735 15.2625 11.5969 15.2859 11.6063 15.2812V15.3844L11.5548 15.3797C11.5454 15.3281 11.5079 15.2812 11.5079 15.2812C11.4938 15.2672 11.4751 15.2672 11.4751 15.2672C11.4516 15.2906 11.4469 15.3094 11.461 15.3234C11.4704 15.3375 11.5079 15.3891 11.4985 15.4266C11.4891 15.4594 11.4376 15.4875 11.3532 15.4969C11.3344 15.5016 11.3251 15.5156 11.3251 15.5297C11.3251 15.5297 11.3391 15.5578 11.3532 15.5578H11.3579C11.4657 15.5437 11.5313 15.5062 11.5501 15.4453L11.5548 15.4406L11.8501 15.4641C11.8548 15.4875 11.8594 15.5203 11.8829 15.5391C11.8923 15.5484 11.911 15.5625 11.9344 15.5625C11.9391 15.5625 11.9438 15.5578 11.9438 15.5578C12.0048 15.5484 12.0282 15.5016 12.0282 15.4594H12.2438L12.2673 15.45L12.2766 15.4219ZM11.9391 15.4969C11.9298 15.4969 11.9251 15.4922 11.9251 15.4922C11.9251 15.4922 11.911 15.45 11.911 15.4359C11.911 15.4359 11.9016 15.4031 11.8829 15.4031L11.6766 15.3891V15.3375L11.9626 15.3516L11.9719 15.4359C11.9673 15.4359 11.9766 15.4922 11.9391 15.4969ZM12.1407 15.4031C12.1501 15.375 12.1735 15.3562 12.1923 15.3422L12.2063 15.4031H12.1407Z" fill="#BF920D"/>
<path d="M12.6798 15.2109H12.6516C12.6376 15.2203 12.6188 15.225 12.6094 15.2297C12.6094 15.2297 12.5813 15.2437 12.5813 15.2578L12.6141 15.2906C12.6188 15.2906 12.6235 15.2906 12.6235 15.2906L12.6376 15.3703L12.5438 15.3844L12.5063 15.0469C12.5063 15.0375 12.4969 15.0234 12.4969 15.0234C12.4735 15.014 12.4641 15.0187 12.4501 15.0281L12.4219 15.0562C12.4079 15.0656 12.4079 15.089 12.4173 15.0984C12.4266 15.1078 12.436 15.1125 12.436 15.1125L12.4641 15.2719C12.3938 15.3047 12.3563 15.3515 12.3563 15.4219V15.4265C12.3563 15.4265 12.3563 15.4406 12.361 15.45C12.361 15.45 12.3704 15.464 12.3938 15.464C12.4173 15.464 12.4501 15.4594 12.5157 15.4547L12.6657 15.4312L12.6938 15.3984V15.239C12.6938 15.225 12.6891 15.2156 12.6798 15.2109ZM12.4219 15.3984C12.4266 15.3797 12.436 15.3562 12.4735 15.3375L12.4782 15.389C12.4548 15.3984 12.436 15.3984 12.4219 15.3984Z" fill="#BF920D"/>
<path d="M12.8063 15.2343C12.7922 15.2249 12.7735 15.2249 12.7641 15.239C12.7641 15.239 12.7547 15.2718 12.7688 15.2859C12.7688 15.2859 12.8532 15.3515 12.8297 15.4171C12.8016 15.4828 12.736 15.4921 12.736 15.4921C12.7125 15.4968 12.6985 15.5062 12.7032 15.5249C12.7032 15.5249 12.7172 15.5531 12.736 15.5531C12.736 15.5531 12.8485 15.5437 12.886 15.4359C12.9235 15.3328 12.811 15.239 12.8063 15.2343Z" fill="#BF920D"/>
<path d="M13.9407 15.1359L13.8141 15.1593C13.8 15.1078 13.7672 14.9906 13.7297 14.9203C13.7016 14.8593 13.6641 14.8453 13.6313 14.8406C13.5891 14.8312 13.5469 14.8547 13.5469 14.8547C13.5188 14.8828 13.5188 14.9015 13.5329 14.9156H13.575C13.575 14.9156 13.6032 14.9015 13.6219 14.9062C13.6454 14.9109 13.6594 14.9297 13.6688 14.9484C13.7016 15.0234 13.7344 15.1265 13.7485 15.1781L13.6875 15.2062C13.6875 15.2015 13.6829 15.2015 13.6829 15.2015C13.5657 15.15 13.5516 15.1593 13.5422 15.1734C13.5329 15.1828 13.5047 15.2203 13.4907 15.2437L13.4579 15.2531C13.4485 15.2062 13.4157 15.1359 13.3594 15.1359C13.3594 15.1359 13.3172 15.1359 13.2938 15.1406C13.2891 15.1125 13.2844 15.089 13.275 15.0609C13.275 15.0609 13.2563 15.0328 13.2375 15.0375C13.2235 15.0422 13.2094 15.0562 13.2141 15.075C13.2188 15.0984 13.2235 15.1265 13.2282 15.1547C13.2188 15.1593 13.2094 15.164 13.2094 15.164C13.1813 15.1828 13.1532 15.2109 13.1485 15.3L13.1016 15.3093C13.0922 15.2297 13.0829 15.2156 13.0829 15.2156C13.0547 15.2062 13.0407 15.2062 13.0407 15.2062L12.9235 15.2906C12.9141 15.3 12.9094 15.3093 12.9094 15.3093L12.9235 15.3703C12.9282 15.3843 12.9469 15.3984 12.961 15.3937L13.0407 15.3797C13.0313 15.4406 12.9704 15.4547 12.9704 15.4547C12.9469 15.4593 12.9375 15.4687 12.9375 15.4687C12.9375 15.5015 12.9516 15.5156 12.9704 15.5156C12.9797 15.5156 13.0313 15.5015 13.0641 15.464C13.0922 15.4359 13.1063 15.4031 13.1063 15.3656L13.275 15.3375C13.2891 15.375 13.2985 15.4031 13.3079 15.4125C13.3079 15.4125 13.3407 15.4359 13.3594 15.4359C13.3594 15.4359 13.3922 15.4312 13.411 15.4265C13.411 15.4265 13.4625 15.4031 13.4625 15.3656V15.3047L13.4907 15.2953L13.5 15.3C13.5282 15.3093 13.6032 15.3328 13.636 15.3234C13.6688 15.314 13.6782 15.2812 13.6829 15.2531L13.7813 15.2156L13.9313 15.1875C13.95 15.1828 13.9594 15.164 13.9594 15.15C13.9735 15.1453 13.9594 15.1359 13.9407 15.1359ZM12.9938 15.3328L13.0454 15.2953L13.05 15.3234L12.9938 15.3328ZM13.2235 15.2953C13.2282 15.239 13.2422 15.2297 13.2422 15.2297L13.2516 15.2203C13.2563 15.2437 13.261 15.2672 13.2657 15.2859L13.2235 15.2953ZM13.3125 15.2015C13.3266 15.2015 13.3454 15.1968 13.3454 15.1968C13.3735 15.1968 13.3875 15.225 13.3969 15.2578L13.3266 15.2718C13.3219 15.2531 13.3172 15.2297 13.3125 15.2015ZM13.4204 15.3656C13.4204 15.3656 13.3969 15.3797 13.3782 15.3797L13.3688 15.375C13.3641 15.3703 13.3594 15.3515 13.35 15.3328L13.4204 15.3234V15.3656ZM13.6313 15.2718C13.6313 15.2718 13.5891 15.2672 13.5563 15.2578C13.5657 15.2484 13.575 15.2343 13.5797 15.225C13.5938 15.2297 13.6125 15.239 13.636 15.2484C13.6407 15.2578 13.6313 15.2718 13.6313 15.2718Z" fill="#BF920D"/>
<path d="M12.3844 15.1125C12.3844 15.0891 12.3656 15.0703 12.3656 15.0703C12.3234 15.0703 12.3047 15.0891 12.3047 15.1125C12.3047 15.1312 12.3234 15.15 12.3469 15.15C12.3469 15.15 12.3844 15.1312 12.3844 15.1125Z" fill="#BF920D"/>
<path d="M10.1345 14.9906C10.1345 14.9906 10.172 14.9765 10.172 14.9531C10.172 14.9297 10.1532 14.9156 10.1532 14.9156C10.111 14.9156 10.0923 14.9297 10.0923 14.9531C10.0923 14.9765 10.1157 14.9906 10.1345 14.9906Z" fill="#BF920D"/>
<path d="M10.1532 15.2297C10.1345 15.2297 10.1157 15.2484 10.1157 15.2672C10.1157 15.2906 10.1345 15.3047 10.1532 15.3047C10.1767 15.3047 10.1907 15.2906 10.1907 15.2672C10.1907 15.2531 10.172 15.2297 10.1532 15.2297Z" fill="#BF920D"/>
<path d="M10.261 15.2672C10.2376 15.2672 10.2235 15.2812 10.2235 15.2812C10.2235 15.3234 10.2376 15.3421 10.261 15.3421C10.2844 15.3421 10.2985 15.3281 10.2985 15.3047C10.2985 15.3047 10.2798 15.2672 10.261 15.2672Z" fill="#BF920D"/>
<path d="M10.4251 15.314C10.4016 15.314 10.3876 15.3281 10.3876 15.3515C10.3876 15.375 10.4016 15.389 10.4251 15.389C10.4485 15.389 10.4626 15.375 10.4626 15.3515C10.4626 15.3281 10.4438 15.314 10.4251 15.314Z" fill="#BF920D"/>
<path d="M12.3985 15.2109C12.3985 15.1922 12.3798 15.1734 12.361 15.1734C12.3376 15.1734 12.3188 15.1922 12.3188 15.2109C12.3188 15.2343 12.3376 15.2531 12.361 15.2531C12.3798 15.2531 12.3985 15.2343 12.3985 15.2109Z" fill="#BF920D"/>
<path d="M12.4782 15.4922C12.4548 15.4922 12.436 15.5062 12.436 15.5297C12.436 15.5531 12.4548 15.5672 12.4782 15.5672C12.4782 15.5672 12.5157 15.5531 12.5157 15.5297C12.5157 15.5062 12.497 15.4922 12.4782 15.4922Z" fill="#BF920D"/>
<path d="M12.572 15.4828C12.5485 15.4828 12.5298 15.4969 12.5298 15.4969C12.5298 15.539 12.5485 15.5578 12.572 15.5578C12.5907 15.5578 12.6095 15.5437 12.6095 15.5203C12.6095 15.525 12.5907 15.4828 12.572 15.4828Z" fill="#BF920D"/>
<path d="M13.8281 15.2812C13.8094 15.2812 13.7906 15.3 13.7906 15.3234C13.7906 15.3422 13.8094 15.3609 13.8281 15.3609C13.8516 15.3609 13.8703 15.3422 13.8703 15.3234C13.8703 15.3 13.8516 15.2812 13.8281 15.2812Z" fill="#BF920D"/>
<path d="M14.8032 14.6578V14.6437C14.7985 14.5828 14.7985 14.5265 14.7985 14.4703L14.7844 14.1375C14.7797 13.9875 14.7704 13.8422 14.7657 13.6922L14.6625 11.3953C14.6579 11.2172 14.6485 11.039 14.6391 10.8609L14.5969 9.97028C14.5875 9.8156 14.4985 9.5531 14.2922 9.51091C13.9594 9.44997 13.6688 9.60466 13.4157 9.74528C13.3594 9.77341 13.3032 9.80622 13.2563 9.82966C13.1438 9.88122 12.9282 9.91403 12.7032 9.9281C12.675 9.88122 12.6422 9.82497 12.6188 9.75466C12.5907 9.68903 12.5672 9.61403 12.5532 9.52497C12.5204 9.31872 12.525 9.1406 12.5297 9.00466C12.5297 8.95778 12.5344 8.91091 12.5344 8.86872C12.5344 8.69528 12.5063 8.55466 12.45 8.45622C12.45 8.45622 12.4454 8.44216 12.4407 8.43747C12.3844 8.34372 12.3047 8.28747 12.2016 8.26403C12.1125 8.24997 12.0469 8.23122 12 8.22185C11.8829 8.19372 11.8594 8.18903 11.8219 8.20778C11.7985 8.21716 11.7891 8.23122 11.7891 8.23122C11.7141 8.22653 11.5594 8.18903 11.4563 8.21247C11.3813 8.22653 11.3157 8.25466 11.2829 8.33903L11.2782 8.3531L11.2735 8.36716C11.2594 8.40935 11.2594 8.4656 11.2641 8.53591V8.5406V8.54528V8.54997L11.2688 8.55466L11.2735 8.55935V8.56403L11.2782 8.56872L11.2829 8.57341L11.2875 8.5781H11.2922H11.2969H11.3016H11.3063H11.311L11.3157 8.57341L11.3204 8.56872L11.325 8.56403L11.3297 8.55935C11.3297 8.55466 11.3297 8.55466 11.3297 8.55466C11.3344 8.54997 11.3438 8.54997 11.3625 8.5406L11.3954 8.52653C11.4188 8.51716 11.4422 8.51716 11.4422 8.51716C11.5266 8.53591 11.5782 8.60153 11.6157 8.65778C11.6391 8.6906 11.6485 8.72341 11.6579 8.77028C11.6672 8.8031 11.6672 8.83591 11.6719 8.87341C11.6766 8.97185 11.6719 9.05153 11.6532 9.12185L11.6485 9.14997C11.6063 9.31403 11.5172 9.6656 11.3204 9.93747C11.0907 9.92341 10.8657 9.89528 10.7532 9.83903C10.7016 9.8156 10.65 9.78747 10.5938 9.75466C10.336 9.61403 10.0454 9.45935 9.71724 9.52028C9.5063 9.56247 9.41724 9.82028 9.40786 9.97966L9.37036 10.8703C9.36099 11.0484 9.3563 11.2265 9.34692 11.4047L9.24849 13.7015C9.2438 13.8515 9.23442 13.9968 9.22974 14.1468L9.21567 14.4797C9.21099 14.5406 9.21099 14.5968 9.21099 14.6531V14.6672C9.2063 14.6765 9.2063 14.6859 9.2063 14.6859C9.2063 14.6859 9.22974 14.7 9.23442 14.7L9.24849 14.6953L9.25317 14.6906L9.5813 14.3953C9.6188 14.3672 9.6563 14.3297 9.6938 14.2968L9.71255 14.2828L10.1391 13.8984L10.1438 13.8937L10.1579 13.8797L10.3735 13.6875C10.4204 13.6453 10.4672 13.6031 10.5141 13.5562L10.5329 13.5375C10.5844 13.4906 10.636 13.4437 10.6875 13.4015L10.3969 14.4281C10.35 14.414 10.2985 14.3953 10.2516 14.3765C10.2141 14.3625 10.1719 14.3672 10.1391 14.3906L10.1344 14.3953L10.1297 14.4C10.1016 14.4047 9.96567 14.4328 9.90474 14.5359C9.87661 14.5828 9.86724 14.6484 9.88599 14.714C9.87661 14.7375 9.87192 14.7656 9.86255 14.7984C9.81099 14.8031 9.72192 14.8406 9.63755 14.9953H9.57192C9.57192 14.9953 9.53911 15.0093 9.53911 15.0281L9.56724 15.0656L9.6188 15.0797C9.62817 15.1406 9.65161 15.2859 9.75005 15.3375C9.75005 15.3375 9.75474 15.3656 9.75942 15.3843C9.7688 15.4547 9.78286 15.5484 9.90474 15.5953C10.0547 15.6562 11.0157 15.8203 11.8125 15.8156C11.9438 15.8156 12.075 15.8156 12.2016 15.8156H12.2579C13.0454 15.8156 13.9641 15.6562 14.1141 15.5953C14.236 15.5484 14.25 15.4547 14.2594 15.3843C14.2641 15.3656 14.2641 15.3468 14.2641 15.3468C14.3625 15.2859 14.3907 15.1406 14.4 15.0797L14.4516 15.0656C14.4657 15.0609 14.4797 15.0422 14.4797 15.0281C14.475 15.0093 14.461 14.9953 14.4422 14.9953H14.3766C14.2922 14.8406 14.2032 14.8031 14.1516 14.7984C14.1469 14.7656 14.1375 14.7375 14.1282 14.714C14.1469 14.6484 14.1375 14.5828 14.1094 14.5359C14.0485 14.4328 13.9125 14.4047 13.8844 14.4V14.3953L13.8797 14.3906C13.8516 14.3672 13.8047 14.3625 13.7719 14.3765C13.7204 14.3953 13.6735 14.414 13.6266 14.4281L13.336 13.4015C13.3922 13.4531 13.4532 13.5047 13.5094 13.5562C13.5516 13.5937 13.5891 13.6312 13.6313 13.6687C13.6407 13.6734 13.6454 13.6781 13.6454 13.6781L13.8844 13.8937L13.8891 13.8984L14.011 14.0109L14.3297 14.2968C14.3672 14.3297 14.4047 14.3672 14.4422 14.3953L14.7704 14.6906V14.6953C14.775 14.7 14.7797 14.7 14.7797 14.7L14.8079 14.6906C14.7985 14.6812 14.8079 14.6625 14.8032 14.6578ZM11.9532 8.36716C11.9813 8.36716 12.0094 8.3906 12.0094 8.41872C12.0094 8.44685 11.9813 8.47028 11.9532 8.47028C11.925 8.47028 11.9016 8.44685 11.9016 8.41872C11.8969 8.39528 11.925 8.36716 11.9532 8.36716ZM11.3344 9.98435C11.3485 9.97028 11.3625 9.95153 11.3719 9.93278C11.3813 9.91403 11.3954 9.89997 11.4047 9.88122C11.4141 9.86247 11.4282 9.84841 11.4375 9.82966C11.4375 9.82966 11.4469 9.81091 11.4516 9.80153L11.4657 9.77341C11.475 9.74997 11.4844 9.73122 11.4844 9.73122C11.4985 9.7031 11.4985 9.69841 11.5032 9.69372L11.5172 9.66091C11.5219 9.64685 11.5266 9.63747 11.5313 9.6281C11.5313 9.62341 11.5313 9.62341 11.5313 9.62341L11.5407 9.60466C11.5454 9.5906 11.55 9.57653 11.5547 9.56247C11.5547 9.56247 11.5641 9.54841 11.5641 9.53903C11.5641 9.53903 11.5735 9.51091 11.5782 9.50153C11.5875 9.47341 11.5969 9.4406 11.6063 9.41716C11.611 9.40778 11.611 9.4031 11.611 9.4031L11.6204 9.37028L11.625 9.34685C11.6485 9.26716 11.6672 9.20153 11.6813 9.15466L11.686 9.12653C11.7047 9.05153 11.7094 8.96716 11.7047 8.86403C11.7 8.82653 11.7 8.78903 11.6907 8.75153L11.686 8.72341C11.7141 8.69997 11.7657 8.71403 11.85 8.71403C11.6719 8.44685 11.5688 8.42341 11.475 8.39997C11.3954 8.38591 11.3579 8.43747 11.3391 8.47497C11.3344 8.47966 11.325 8.48435 11.325 8.48435C11.325 8.48435 11.311 8.48903 11.3063 8.49372C11.3016 8.4656 11.3063 8.43278 11.311 8.40935L11.3157 8.38591V8.37653L11.3297 8.34841C11.3485 8.32966 11.3766 8.32028 11.4 8.3156C11.4375 8.31091 11.4704 8.30622 11.5079 8.30622C11.536 8.30622 11.5594 8.31091 11.5875 8.33435C11.6344 8.37653 11.686 8.41403 11.7375 8.44685C11.7704 8.47028 11.8219 8.49841 11.8594 8.49841C11.8594 8.49841 11.8829 8.52185 11.8922 8.53122C11.9063 8.54528 11.9204 8.55466 11.9391 8.55466C11.9719 8.55935 12 8.5406 12.0094 8.51247C12.0188 8.49841 12.0469 8.48435 12.061 8.47966C12.0891 8.47028 12.1219 8.45622 12.15 8.45153C12.1829 8.44216 12.2204 8.43747 12.2579 8.43747C12.2954 8.43747 12.3469 8.43747 12.375 8.47028C12.375 8.47028 12.3844 8.47966 12.3844 8.48435C12.3844 8.48435 12.3985 8.51716 12.4079 8.53591C12.4172 8.56403 12.4266 8.59216 12.436 8.62028C12.4547 8.69528 12.4594 8.77028 12.4641 8.84528V8.87341C12.4641 8.9156 12.4594 8.95778 12.4594 9.00466C12.45 9.14528 12.4454 9.32341 12.4829 9.53903C12.511 9.71247 12.5719 9.83903 12.6282 9.93747C12.6375 9.95622 12.6469 9.97497 12.6563 9.98903C12.6704 10.0078 12.6844 10.0265 12.6938 10.0406C12.6141 10.0359 12.5579 10.0172 12.5204 9.99372C12.4875 9.97966 12.4688 9.96091 12.4688 9.96091C12.4594 9.95153 12.4594 9.94685 12.4594 9.94685C12.45 9.92341 12.4407 9.89997 12.4313 9.88122C12.4032 9.81091 12.3704 9.73591 12.3469 9.66091C12.2954 9.48278 12.2719 9.15466 12.2719 9.15466C12.2719 9.13591 12.2579 9.12653 12.2579 9.12653C12.2297 9.12653 12.2157 9.1406 12.2204 9.15466C12.2204 9.15466 12.2344 9.49216 12.2954 9.67497C12.3188 9.74997 12.3469 9.82497 12.3797 9.89997L12.3938 9.94216C12.4032 9.96091 12.4079 9.97966 12.4079 9.97966C12.4313 10.0406 12.4454 10.0828 12.4547 10.1156C12.3797 10.1015 12.2766 10.05 12.2063 9.99841C12.1829 9.98435 12.1641 9.9656 12.1547 9.95153V9.94216C12.1079 9.74997 12.1125 9.13122 12.1125 9.13122C12.1125 9.10778 12.1032 9.09841 12.1032 9.09841C12.075 9.09841 12.061 9.10778 12.061 9.12653C12.061 9.15466 12.061 9.73122 12.1032 9.94216C12.1032 9.94685 12.1079 9.95153 12.1079 9.95153C12.1079 9.95153 12.0938 9.97966 12.0797 9.99841C12.0657 10.0172 12.0469 10.0359 12.0141 10.0687C12.0047 10.0781 11.9954 10.0922 11.9954 10.0922C11.9766 10.1015 11.9672 10.0968 11.9672 10.0968C11.9344 10.0687 11.9016 10.0359 11.8735 10.0031C11.8594 9.98435 11.8454 9.9656 11.8313 9.95153C11.9625 9.74997 11.986 9.47341 12 9.11716C12 9.11716 11.9907 9.08903 11.9766 9.08903L11.9485 9.11716C11.9344 9.48278 11.9063 9.75935 11.7657 9.95153C11.7516 9.97028 11.7375 9.98903 11.7375 9.98903C11.6813 10.05 11.6297 10.0875 11.5688 10.1203C11.5735 10.0875 11.5829 10.0453 11.5922 10.0031C11.5922 10.0031 11.6016 9.97028 11.6016 9.95153L11.6063 9.93747C11.7047 9.80153 11.8032 9.56716 11.8641 9.14997C11.8641 9.14997 11.8594 9.12185 11.8407 9.11716C11.8407 9.11716 11.8125 9.12653 11.8125 9.1406C11.7422 9.60935 11.6344 9.83903 11.5266 9.95153C11.5032 9.97497 11.4844 9.99372 11.4657 10.0031C11.4329 10.0265 11.4 10.0406 11.3672 10.05C11.3344 10.0593 11.3063 10.064 11.2782 10.064C11.3016 10.0359 11.3204 10.0078 11.3344 9.98435ZM10.9594 13.2937L11.0766 13.6031L11.0907 13.6125C11.0954 13.6172 11.1047 13.6125 11.1047 13.6125L11.3063 13.3406L11.4047 13.8328C11.3063 13.9734 11.2266 14.0953 11.1844 14.1515C11.1657 14.0953 11.1282 13.9828 11.0672 13.8187C11.0672 13.8187 11.0579 13.8093 11.0532 13.8047C11.0438 13.8047 11.0391 13.8093 11.0391 13.8093L10.8282 14.1234L10.6688 13.5843L10.9594 13.2937ZM13.05 14.55L12.8813 14.3203C12.8766 14.3156 12.8719 14.3109 12.8719 14.3109L12.8485 14.325L12.75 14.5734C12.6844 14.5781 12.6235 14.5781 12.5719 14.5734L12.5063 14.2781L12.586 13.8843C12.8157 14.2125 12.8157 14.2125 12.8344 14.2078L12.8485 14.189C12.8532 14.1703 12.9141 13.9922 12.961 13.8609L13.1625 14.1609L13.05 14.55ZM13.1907 14.2078L13.3829 14.4937C13.2797 14.5172 13.1813 14.5359 13.0875 14.5453L13.1907 14.2078ZM13.0079 14.5593C12.9329 14.5687 12.8579 14.5734 12.7969 14.5734L12.8766 14.3718L13.0079 14.5593ZM12.1969 14.6297C12.136 14.6297 12.0891 14.6484 12.061 14.6859C12.0469 14.7047 12.0375 14.7281 12.0329 14.7562H11.9579C11.9532 14.7281 11.9485 14.7047 11.9344 14.6859C11.9063 14.6484 11.8594 14.6297 11.7985 14.6297C11.7844 14.6062 11.7516 14.5781 11.686 14.5687C11.6625 14.564 11.6204 14.564 11.5594 14.5687C11.5313 14.5734 11.5032 14.5734 11.4657 14.5734L11.5125 14.3578L11.6063 14.5078C11.611 14.5172 11.625 14.5218 11.625 14.5218L11.7844 14.3812L11.7891 14.3718L11.9063 13.4625L11.85 14.3765L11.8547 14.3906L11.986 14.5453C11.9954 14.5547 12.0094 14.5547 12.0094 14.5547L12.1454 14.3953L12.15 14.3812L12.0938 13.4672L12.211 14.3765L12.2157 14.3859L12.3657 14.5218C12.375 14.5312 12.3891 14.5265 12.3891 14.5265L12.4875 14.3672L12.5344 14.5828C12.5016 14.5781 12.4735 14.5781 12.4454 14.5781C12.3844 14.5734 12.3469 14.5734 12.3235 14.5781C12.2485 14.5781 12.2157 14.6062 12.1969 14.6297ZM12.2204 14.7562C12.225 14.7562 12.2297 14.7703 12.2344 14.7797C12.2344 14.7797 12.2532 14.8078 12.2672 14.8172L12.2625 14.8312C12.2532 14.8593 12.225 14.8781 12.1922 14.8968L12.1641 14.9203C12.1313 14.939 12.1219 14.9531 12.1125 14.9718C12.0891 14.9109 12.0797 14.8687 12.0704 14.8312C12.0657 14.8031 12.0657 14.7797 12.0704 14.7562C12.075 14.7328 12.0797 14.7234 12.0891 14.7093C12.1125 14.6765 12.15 14.6672 12.1782 14.6672C12.1735 14.6906 12.1782 14.7093 12.1922 14.7187L12.2204 14.7562ZM11.925 14.8265C11.9204 14.864 11.9063 14.9109 11.8829 14.9672C11.8735 14.9484 11.8641 14.9343 11.8313 14.9156C11.8219 14.9062 11.8079 14.9015 11.7985 14.8922C11.7704 14.8734 11.7375 14.8593 11.7329 14.8265L11.7282 14.8125L11.761 14.775L11.775 14.7515C11.7797 14.7515 11.7797 14.7515 11.7797 14.7515L11.8032 14.7187C11.8172 14.7047 11.8219 14.6859 11.8219 14.6672C11.85 14.6672 11.8875 14.6765 11.911 14.7093C11.9204 14.7187 11.925 14.7328 11.9297 14.7562C11.925 14.775 11.925 14.7984 11.925 14.8265ZM11.1516 14.325L11.1375 14.3109C11.1282 14.3109 11.1235 14.3156 11.1235 14.3156L10.95 14.55L10.8375 14.1656L11.0438 13.8656C11.0907 13.9968 11.1516 14.175 11.1563 14.1937L11.175 14.2125C11.1891 14.2172 11.1938 14.2172 11.4235 13.889L11.5032 14.2828L11.4375 14.5781C11.386 14.5828 11.3204 14.5828 11.2594 14.5781L11.1516 14.325ZM11.2079 14.5734C11.1422 14.5687 11.0672 14.564 10.9922 14.5593L11.1282 14.3718L11.2079 14.5734ZM10.9125 14.55C10.8235 14.5406 10.7204 14.5218 10.6172 14.4984L10.8094 14.2125L10.9125 14.55ZM11.4469 13.8375L11.4516 13.8328C11.5266 13.725 11.6016 13.6172 11.6532 13.5468L11.5172 14.1843L11.4469 13.8375ZM11.6485 12.8062C11.6907 12.8484 11.7329 12.8906 11.7797 12.9328L11.686 13.3734L11.5454 12.9328L11.6485 12.8062ZM11.3532 13.1062L11.325 12.8156C11.386 12.7547 11.4469 12.7031 11.5079 12.6515C11.5454 12.6937 11.5829 12.7359 11.625 12.7781L11.3532 13.1062ZM12.4547 12.9328L12.3141 13.3734L12.2204 12.9328C12.2672 12.8906 12.3094 12.8484 12.3516 12.8062L12.4547 12.9328ZM12.3797 12.7781C12.4219 12.7359 12.4594 12.6937 12.4969 12.6468C12.5579 12.6984 12.6141 12.75 12.6797 12.8109L12.6516 13.1015L12.3797 12.7781ZM12.3469 13.5422C12.3938 13.6172 12.4688 13.7203 12.5485 13.8281L12.5532 13.8328L12.4829 14.175L12.3469 13.5422ZM12.5625 13.7859C12.4829 13.6687 12.4032 13.5468 12.3282 13.4484L12.4829 12.9703L12.6422 13.1718C12.6422 13.1718 12.6563 13.1812 12.661 13.1765L12.675 13.1625L12.7079 12.8531C12.8391 12.9703 12.9797 13.0968 13.125 13.2281C13.1391 13.2422 13.1579 13.2609 13.1766 13.275C13.1766 13.275 13.2094 13.3031 13.2235 13.3172L13.2375 13.3312C13.2375 13.3312 13.2516 13.3453 13.261 13.35L13.3032 13.5093L13.036 13.2468C13.0313 13.2422 13.0266 13.2375 13.0266 13.2375C13.0266 13.2375 13.0079 13.2468 13.0032 13.2515L12.886 13.5515L12.6844 13.2797L12.6657 13.2703L12.6469 13.2843L12.5625 13.7859ZM13.2188 13.2234C13.2047 13.2093 13.186 13.1953 13.1719 13.1765C13.1719 13.1765 13.1579 13.1672 13.1485 13.1625L13.0829 11.5687C13.125 11.4328 13.1532 11.2922 13.1766 11.1468L13.261 13.2656C13.2469 13.2562 13.2329 13.2375 13.2188 13.2234ZM13.0782 11.4422C12.9657 11.8781 12.7594 12.2765 12.4641 12.6234C12.3797 12.7218 12.286 12.8156 12.1875 12.9047V12.9093C12.1829 12.914 12.1735 12.9234 12.1735 12.9234L12.1454 12.9468L12.1032 12.9797C12.0704 13.0078 12.0329 13.0359 12 13.064C11.9672 13.0359 11.9297 13.0078 11.8969 12.9797C11.8829 12.9703 11.8688 12.9562 11.8547 12.9468L11.8313 12.9281C11.8219 12.9234 11.8172 12.914 11.8079 12.9093L11.8032 12.9047C11.7047 12.8156 11.611 12.7172 11.5266 12.6234C11.2313 12.2765 11.025 11.8781 10.9125 11.4422C10.8657 11.264 10.8375 11.0812 10.8235 10.889L10.8329 10.6453C11.4938 10.6218 11.85 10.4062 11.9625 10.3265C11.9766 10.3172 11.986 10.3125 11.986 10.3125C11.986 10.3125 12.0094 10.3218 12.0188 10.3265C12.1313 10.4062 12.4922 10.6218 13.1485 10.6453L13.1579 10.889C13.1532 11.0812 13.125 11.264 13.0782 11.4422ZM10.9172 11.5734L10.8516 13.1672C10.8516 13.1672 10.8375 13.1812 10.8329 13.1812C10.8188 13.1953 10.8 13.2093 10.8 13.2093C10.7672 13.2375 10.7532 13.2562 10.7391 13.2703L10.8235 11.1515C10.8422 11.2922 10.875 11.4328 10.9172 11.5734ZM10.7485 13.3265L10.7672 13.3125C10.7813 13.2984 10.8 13.2843 10.8141 13.2703C10.8282 13.2562 10.8469 13.2422 10.861 13.2234C11.0063 13.0922 11.1469 12.9656 11.2829 12.8484L11.3157 13.1578L11.3297 13.1718L11.3532 13.1672L11.5125 12.9656L11.6672 13.4437C11.5922 13.5468 11.5125 13.6687 11.4329 13.7812L11.3344 13.2843L11.3204 13.2703C11.311 13.2656 11.3063 13.2703 11.3063 13.2703L11.1 13.5515L10.9829 13.2515L10.9688 13.2422C10.9594 13.2375 10.9547 13.2422 10.9547 13.2422L10.6782 13.5093L10.725 13.35C10.7344 13.3406 10.7438 13.3312 10.7485 13.3265ZM10.6454 13.6453L10.7954 14.1562L10.5797 14.4843C10.5282 14.4703 10.4766 14.4562 10.425 14.4375L10.6454 13.6453ZM10.1391 14.4281L10.1438 14.4234C10.1485 14.4187 10.1485 14.4187 10.1485 14.4187C10.1719 14.4 10.2 14.3953 10.2235 14.4093C10.2704 14.4328 10.3219 14.4468 10.3735 14.4609C10.5704 14.5265 10.7485 14.564 10.9172 14.5922C10.9922 14.6015 11.0672 14.6062 11.1375 14.6109C11.1657 14.6156 11.1938 14.6156 11.2219 14.6156C11.2219 14.6156 11.25 14.6156 11.2641 14.6156C11.3204 14.6156 11.3766 14.6156 11.4188 14.6156C11.4329 14.6156 11.4469 14.6156 11.461 14.6156C11.4985 14.6109 11.536 14.6109 11.5641 14.6109C11.6204 14.6062 11.6625 14.6062 11.6813 14.6062C11.7422 14.6156 11.761 14.639 11.761 14.639C11.775 14.6718 11.775 14.6906 11.7704 14.6906C11.7704 14.6906 11.7516 14.714 11.7422 14.7328C11.7375 14.7375 11.7329 14.7422 11.7329 14.7422L11.7282 14.7515C11.7188 14.7609 11.7094 14.775 11.7094 14.775C11.6813 14.7937 11.6579 14.8031 11.6344 14.8031C11.5313 14.8125 11.4141 14.8125 11.2969 14.8078C11.2079 14.8031 11.1188 14.7984 11.0204 14.7843L11.025 14.7797C11.0344 14.7515 11.0344 14.7281 11.0344 14.7281C11.025 14.6578 10.9922 14.625 10.9641 14.6015L10.9547 14.5968C10.9454 14.5875 10.9313 14.5828 10.9125 14.5828H10.9032L10.875 14.5875H10.8704C10.8282 14.6015 10.7954 14.6343 10.7813 14.6765C10.7766 14.6812 10.7766 14.6859 10.7766 14.6859C10.7719 14.714 10.7719 14.7281 10.7719 14.7468V14.7515C10.6922 14.7375 10.6172 14.7234 10.5469 14.7093C10.3266 14.6625 10.1719 14.6156 10.1485 14.6062C10.1485 14.6062 10.1438 14.6015 10.1438 14.5968L10.1391 14.5922C10.1391 14.5922 10.1297 14.564 10.1297 14.5406C10.125 14.5172 10.125 14.4843 10.125 14.4562C10.1204 14.4656 10.125 14.4422 10.1391 14.4281ZM10.9875 14.789C10.9829 14.8078 10.9735 14.8265 10.9641 14.8453V14.85C10.9594 14.8547 10.95 14.864 10.9407 14.8734C10.9266 14.8875 10.9079 14.9062 10.8891 14.9343C10.8844 14.9203 10.875 14.9062 10.8657 14.8922C10.8422 14.8547 10.8141 14.8172 10.8141 14.7656C10.8141 14.7656 10.8141 14.7328 10.8188 14.714L10.8235 14.6906C10.8329 14.6625 10.8563 14.6437 10.8844 14.6343C10.8891 14.6297 10.8938 14.6297 10.8938 14.6297L10.9313 14.639C10.9641 14.6625 10.9829 14.6859 10.9875 14.714C10.9922 14.7375 10.9922 14.7656 10.9875 14.789ZM9.93286 14.5406C9.97036 14.4797 10.0407 14.4515 10.0875 14.4375C10.0829 14.4468 10.0829 14.4562 10.0829 14.4562C10.0829 14.4843 10.0875 14.5125 10.0875 14.5359C10.0922 14.5593 10.0922 14.5781 10.0969 14.5968L10.0688 14.6062C10.0454 14.6156 10.0219 14.625 10.0219 14.625C9.9563 14.6531 9.93286 14.6718 9.91411 14.6906C9.90942 14.6718 9.90474 14.6531 9.90474 14.6531C9.90474 14.6062 9.91411 14.5687 9.93286 14.5406ZM13.9125 14.4375C13.9594 14.4515 14.0297 14.4843 14.0672 14.5406C14.0813 14.5687 14.0907 14.6015 14.0907 14.6343C14.0907 14.6343 14.086 14.6718 14.0813 14.6906C14.0579 14.6718 14.0344 14.6531 13.9875 14.6297C13.9735 14.6203 13.95 14.6109 13.9266 14.6015C13.9266 14.6015 13.9079 14.5968 13.8985 14.5922C13.9032 14.5734 13.9079 14.55 13.9079 14.5312C13.9125 14.5078 13.9125 14.4797 13.9125 14.4562C13.9172 14.4656 13.9172 14.4468 13.9125 14.4375ZM13.8844 14.6343C13.9829 14.6672 14.0204 14.6953 14.0438 14.7187C14.0579 14.7468 14.0672 14.7797 14.0719 14.8265L14.086 14.85C14.0954 14.8547 14.1047 14.8593 14.1047 14.8593C14.1047 14.8593 14.2172 14.8453 14.311 15.0328L14.3204 15.0422C14.3157 15.0984 14.2875 15.2343 14.2172 15.2625C14.2172 15.2625 14.2032 15.2718 14.1985 15.2812C14.1844 15.3047 14.1844 15.3328 14.1797 15.3656C14.1704 15.4265 14.161 15.4875 14.0766 15.5203C13.9594 15.5672 13.0079 15.7406 12.1922 15.7312H11.8032C10.9875 15.7406 10.0407 15.5672 9.9188 15.5203C9.83442 15.4875 9.82505 15.4265 9.81567 15.3656C9.81099 15.3375 9.8063 15.3047 9.79692 15.2812C9.79692 15.2812 9.78755 15.2672 9.77817 15.2625C9.70786 15.2343 9.67974 15.1031 9.67505 15.0422L9.68442 15.0328C9.77817 14.8453 9.87661 14.8547 9.87661 14.8547C9.87661 14.8547 9.89536 14.8547 9.90474 14.85L9.9188 14.8265C9.92349 14.7797 9.93286 14.7468 9.94224 14.7187C9.97036 14.6953 10.0079 14.6672 10.1016 14.6343C10.1063 14.639 10.1063 14.6437 10.1063 14.6437C10.1297 14.6672 10.4204 14.7468 10.7672 14.8031C10.7766 14.85 10.8 14.8828 10.8188 14.9156C10.8422 14.9437 10.8563 14.9672 10.8516 14.9953C10.8516 14.9953 10.861 15.014 10.8704 15.0187H10.875C10.8844 15.0187 10.8891 15.0093 10.8891 15.0093C10.8985 14.9578 10.9313 14.925 10.9547 14.9015C10.9688 14.8922 10.9782 14.8781 10.9782 14.8781L10.9875 14.864L11.0016 14.8359C11.1422 14.85 11.2829 14.8593 11.4094 14.8593C11.4891 14.8593 11.5594 14.8547 11.6344 14.8547C11.6485 14.85 11.6672 14.8453 11.6672 14.8453C11.6954 14.8875 11.7375 14.9109 11.7704 14.9297C11.7797 14.9343 11.7891 14.939 11.7985 14.9437C11.8266 14.9672 11.8313 14.9765 11.8407 14.9953L11.8547 15.0234L11.8688 15.0328H11.8735L11.8875 15.0187C11.9204 14.9437 11.9391 14.8781 11.9485 14.8218H12.0235C12.0329 14.8734 12.0516 14.9437 12.0844 15.0187C12.0891 15.0281 12.0938 15.0328 12.0938 15.0328H12.1032L12.1172 15.0234L12.136 14.9953C12.1454 14.9765 12.15 14.9672 12.1782 14.9437C12.1782 14.9437 12.1969 14.9343 12.2063 14.9297C12.2391 14.9062 12.2813 14.8828 12.2954 14.8359C12.3094 14.8406 12.3282 14.8453 12.3422 14.85C12.4125 14.8547 12.4875 14.8547 12.5672 14.8547C12.6938 14.8547 12.8297 14.85 12.975 14.8312C12.9797 14.8406 12.9844 14.85 12.9844 14.85L12.9891 14.8593L13.0172 14.8922C13.0407 14.9156 13.0688 14.9484 13.0782 14.9906C13.0829 15 13.0875 15.0047 13.0875 15.0047H13.0969C13.1063 15 13.1157 14.9953 13.1157 14.9953C13.111 14.9625 13.125 14.9343 13.1485 14.9062C13.1719 14.8781 13.1954 14.8406 13.2047 14.7937C13.5469 14.7375 13.8422 14.6531 13.861 14.6343C13.8797 14.6437 13.8844 14.639 13.8844 14.6343ZM13.0079 14.714C13.0172 14.6859 13.036 14.6625 13.0641 14.639C13.0735 14.6343 13.0875 14.6297 13.0969 14.6297C13.0969 14.6297 13.111 14.6297 13.1157 14.6343C13.1438 14.6437 13.1672 14.6625 13.1766 14.6906L13.1813 14.714C13.186 14.7328 13.186 14.7468 13.186 14.7468C13.1813 14.8125 13.1579 14.85 13.1344 14.8875C13.125 14.9015 13.1157 14.9156 13.111 14.9297C13.0969 14.9015 13.0735 14.8828 13.0594 14.8687C13.0594 14.8687 13.0407 14.85 13.036 14.8453V14.8406C13.036 14.8406 13.0172 14.8031 13.0125 14.7843C13.0079 14.7656 13.0032 14.7375 13.0079 14.714ZM13.6266 14.4609C13.6782 14.4468 13.725 14.4281 13.7766 14.4093C13.8 14.4 13.8282 14.4 13.8282 14.4C13.8516 14.4187 13.8516 14.4187 13.8563 14.4234L13.861 14.4281L13.8797 14.4656C13.8797 14.4937 13.875 14.5265 13.8704 14.55C13.8657 14.5734 13.8657 14.5875 13.8657 14.5875L13.861 14.6062C13.8563 14.6109 13.8563 14.6156 13.8563 14.6156C13.8329 14.6297 13.6782 14.6765 13.4579 14.7234C13.3875 14.7375 13.3125 14.7515 13.2329 14.7656V14.7609C13.2329 14.7468 13.2282 14.7281 13.2282 14.7093C13.2282 14.7093 13.2235 14.7 13.2235 14.6953C13.2094 14.6531 13.1766 14.6203 13.1344 14.6062H13.125C13.1157 14.6015 13.1063 14.6015 13.1063 14.6015H13.0829C13.0829 14.6015 13.0547 14.6109 13.0454 14.6156L13.036 14.6203C13.0079 14.6437 12.975 14.6718 12.9704 14.7234C12.9704 14.7234 12.9657 14.7703 12.975 14.7984V14.8031C12.8813 14.8125 12.7875 14.8218 12.6985 14.8265C12.5813 14.8312 12.4641 14.8312 12.361 14.8218C12.3422 14.8172 12.3188 14.8125 12.3047 14.7984C12.3047 14.7984 12.2813 14.7797 12.2719 14.7703L12.2672 14.7656C12.2672 14.7656 12.2625 14.7515 12.2579 14.7468C12.2579 14.7468 12.2391 14.714 12.2297 14.7047C12.2297 14.7047 12.2204 14.6859 12.2297 14.6672C12.2391 14.6531 12.2579 14.625 12.3188 14.6156C12.3188 14.6156 12.3797 14.6156 12.436 14.6203C12.4641 14.625 12.5016 14.625 12.5344 14.625H12.5766C12.6235 14.625 12.675 14.625 12.7313 14.625C12.7454 14.625 12.7594 14.625 12.7735 14.625C12.8016 14.625 12.8297 14.6203 12.8579 14.6203C12.9282 14.6156 12.9985 14.6109 13.0782 14.6015C13.2469 14.5687 13.4297 14.5312 13.6266 14.4609ZM13.575 14.4375C13.5235 14.4562 13.4719 14.4703 13.4204 14.4843L13.2 14.1562L13.35 13.6453L13.575 14.4375ZM13.336 13.5797L13.1766 14.1187L12.9704 13.8093L12.9516 13.8C12.9422 13.8047 12.9375 13.8093 12.9375 13.814C12.8766 13.9781 12.8391 14.0906 12.8204 14.1468C12.7782 14.0953 12.6938 13.9734 12.5954 13.8281L12.6938 13.3359L12.8907 13.5984C12.8907 13.5984 12.9047 13.6078 12.9094 13.6078C12.9188 13.6078 12.9235 13.6031 12.9235 13.6031L13.0454 13.289L13.336 13.5797ZM14.4516 14.3343C14.4235 14.3062 14.3907 14.2828 14.3579 14.25L14.3438 14.2359L14.1657 9.94685C14.1047 10.0125 14.011 10.1062 13.8844 10.2093L14.0391 13.9687L13.9172 13.8562H13.9125L13.8938 13.8375L13.7438 10.3125C13.6782 10.3593 13.6079 10.4109 13.5235 10.4625L13.6547 13.6265C13.6125 13.589 13.5704 13.5515 13.5329 13.514L13.5141 13.5L13.3922 10.5375C13.336 10.5656 13.275 10.5984 13.2141 10.6218C13.2141 10.6218 13.2047 10.6125 13.2 10.6125C12.4735 10.5937 12.1032 10.3359 12.0282 10.2797C12.0188 10.275 12.0188 10.2703 12.0188 10.2703C12.0188 10.2703 11.9954 10.2656 11.9907 10.2703C11.9907 10.2703 11.986 10.275 11.9766 10.2797C11.9016 10.3359 11.536 10.5937 10.8094 10.6125L10.7954 10.6218C10.7297 10.5937 10.6735 10.5656 10.6172 10.5375L10.4954 13.5L10.4766 13.514C10.4344 13.5515 10.3922 13.589 10.3547 13.6265L10.486 10.4625C10.4063 10.4156 10.3313 10.364 10.2704 10.3125L10.1204 13.8375L10.1016 13.8562H10.0969L9.97505 13.9687L10.1297 10.2093C10.0032 10.1062 9.90942 10.0125 9.84849 9.94685L9.67036 14.2359L9.65161 14.25C9.62349 14.2781 9.59067 14.3062 9.55786 14.3343L9.74536 9.86247C9.66099 9.88591 9.52036 9.97028 9.45942 10.0031L9.46411 9.97028C9.4688 9.82028 9.55786 9.59528 9.72192 9.56247C9.7688 9.5531 9.81567 9.54841 9.86255 9.54841C10.1204 9.54841 10.3547 9.67497 10.5657 9.79216C10.6219 9.82028 10.6782 9.84841 10.7297 9.87653C10.8422 9.93278 11.0625 9.9656 11.2829 9.97966C11.2594 10.0125 11.2313 10.0453 11.1985 10.0734C11.1891 10.0828 11.1891 10.0968 11.1938 10.1062C11.1985 10.1156 11.2079 10.1203 11.2079 10.1203C11.2219 10.1203 11.2219 10.1203 11.2219 10.1203C11.2219 10.1203 11.2547 10.1109 11.2782 10.1109C11.3532 10.1062 11.4516 10.0968 11.5547 10.0031C11.5454 10.064 11.5313 10.1343 11.5313 10.1578C11.5313 10.1672 11.536 10.1765 11.536 10.1765C11.55 10.1859 11.55 10.1859 11.55 10.1859L11.5641 10.1812C11.6672 10.1343 11.7516 10.0687 11.8079 9.99372C11.8125 9.98903 11.8125 9.98903 11.8125 9.98903L11.8219 9.99372C11.8641 10.0406 11.925 10.1203 11.9766 10.1484L11.9954 10.1578C12 10.1625 12 10.1625 12 10.1625C12 10.1625 12.0188 10.1578 12.0235 10.1531L12.0282 10.1437C12.1079 10.064 12.136 10.0312 12.1594 10.0031C12.2344 10.0781 12.4079 10.1672 12.511 10.1672L12.5391 10.139C12.5391 10.1156 12.5297 10.0781 12.5157 10.0359C12.5672 10.064 12.6563 10.0922 12.7735 10.0922C12.7829 10.0922 12.7922 10.0875 12.7969 10.0781C12.7969 10.0781 12.8016 10.0593 12.7922 10.05L12.7875 10.0453C12.7735 10.0312 12.7594 10.0078 12.7407 9.98435C12.8485 9.97497 12.9563 9.96091 13.05 9.94685C13.1438 9.9281 13.2235 9.90466 13.2797 9.88122C13.3313 9.8531 13.3829 9.82966 13.4438 9.79685C13.6547 9.67966 13.8891 9.5531 14.1469 9.5531C14.1938 9.5531 14.2407 9.55778 14.2829 9.56716C14.4516 9.59528 14.5407 9.82497 14.5454 9.97497L14.55 10.0078C14.4891 9.97497 14.3485 9.8906 14.2641 9.86716L14.4516 14.3343Z" fill="#BF920D"/>
<path d="M10.1813 14.5031C10.1813 14.5031 10.3126 14.5312 10.3595 14.5687L10.3688 14.5734C10.3782 14.5734 10.3829 14.5687 10.3829 14.5687C10.3923 14.5547 10.3923 14.5406 10.3923 14.5406C10.3267 14.4937 10.1907 14.4656 10.1907 14.4656C10.1767 14.4609 10.1626 14.4703 10.1626 14.4797C10.172 14.4797 10.172 14.4984 10.1813 14.5031Z" fill="#BF920D"/>
<path d="M10.5048 14.6016C10.547 14.6109 10.6642 14.6344 10.7063 14.6531L10.7157 14.6578L10.7345 14.6484C10.7345 14.6484 10.7345 14.625 10.7251 14.6203C10.6688 14.5922 10.5188 14.5641 10.5188 14.5641C10.5048 14.5594 10.4907 14.5687 10.4907 14.5687C10.4907 14.5875 10.4954 14.5969 10.5048 14.6016Z" fill="#BF920D"/>
<path d="M11.0907 14.7188C11.0907 14.7188 11.1001 14.7141 11.1141 14.7141C11.1516 14.7094 11.2407 14.7 11.3016 14.7141L11.3063 14.7188L11.3251 14.7047C11.3251 14.7047 11.3251 14.6953 11.3204 14.6906C11.3157 14.6859 11.311 14.6859 11.311 14.6859C11.2829 14.6766 11.2594 14.6766 11.2313 14.6719C11.1798 14.6719 11.1329 14.6766 11.1048 14.6813C11.0954 14.6859 11.0907 14.6859 11.0907 14.6859C11.0907 14.6859 11.0673 14.6953 11.0673 14.7047L11.0907 14.7188Z" fill="#BF920D"/>
<path d="M11.4375 14.7375C11.4422 14.7375 11.5687 14.7187 11.6484 14.7187L11.6672 14.6953C11.6672 14.6859 11.6578 14.6765 11.6578 14.6765C11.5781 14.6765 11.4797 14.6906 11.4422 14.6953L11.4328 14.7L11.4188 14.7093L11.4141 14.7234L11.4375 14.7375Z" fill="#BF920D"/>
<path d="M13.6219 14.5687C13.6219 14.5687 13.6313 14.5688 13.6359 14.5641C13.6875 14.5266 13.8141 14.4984 13.8141 14.4984C13.8234 14.4937 13.8328 14.4891 13.8328 14.4891C13.8281 14.4656 13.8188 14.4609 13.8188 14.4609C13.8188 14.4609 13.6688 14.4891 13.6125 14.5359C13.6031 14.5406 13.6031 14.5547 13.6078 14.5641C13.6125 14.5688 13.6172 14.5687 13.6219 14.5687Z" fill="#BF920D"/>
<path d="M13.2844 14.6578L13.2938 14.6531C13.3359 14.6297 13.4484 14.6062 13.4953 14.6015C13.5047 14.5968 13.5094 14.5875 13.5094 14.5781L13.4859 14.564C13.4859 14.564 13.3313 14.5922 13.275 14.625L13.2656 14.6531C13.2656 14.6484 13.2797 14.6578 13.2844 14.6578Z" fill="#BF920D"/>
<path d="M12.9094 14.6812L12.8954 14.6766C12.8672 14.6719 12.8204 14.6672 12.7735 14.6672H12.7688C12.7407 14.6719 12.7172 14.6719 12.6891 14.6766L12.6797 14.6859C12.675 14.6906 12.675 14.6953 12.675 14.6953C12.675 14.6953 12.6844 14.7187 12.6938 14.7187L12.6985 14.7141C12.7594 14.7 12.8485 14.7094 12.886 14.7141C12.886 14.7141 12.9 14.7187 12.9094 14.7187L12.9282 14.6953C12.9329 14.6859 12.9235 14.6812 12.9094 14.6812Z" fill="#BF920D"/>
<path d="M12.5673 14.7C12.5673 14.7 12.5626 14.6953 12.5532 14.6953C12.5204 14.6906 12.4173 14.6765 12.3516 14.6765C12.3423 14.6765 12.3329 14.6859 12.3329 14.6953C12.3329 14.6953 12.3423 14.7187 12.3516 14.7187C12.4313 14.7187 12.5579 14.7375 12.5579 14.7375H12.5626L12.5813 14.7234L12.5766 14.7093L12.5673 14.7Z" fill="#BF920D"/>
<path d="M13.0875 10.7109L13.05 10.7062C13.0266 10.7062 13.0078 10.7015 12.9891 10.7015C12.7828 10.6875 12.5953 10.65 12.4172 10.589C12.3844 10.5796 12.3563 10.5703 12.3281 10.5609C12.1922 10.5093 12.0891 10.4531 12.0234 10.4109C12.0187 10.4062 12.0141 10.4062 12.0141 10.4062C12.0141 10.4062 11.9906 10.3968 11.9859 10.4015C11.9859 10.4015 11.9766 10.4109 11.9719 10.4109C11.8922 10.4625 11.7656 10.5328 11.5828 10.589C11.4094 10.65 11.2172 10.6875 11.0109 10.7015C10.9922 10.7062 10.9734 10.7062 10.9547 10.7062C10.9406 10.7062 10.9266 10.7109 10.9125 10.7109C10.9125 10.7109 10.8984 10.7203 10.8984 10.7343C10.9031 10.8843 10.9125 11.025 10.9359 11.1703C11.0203 11.6906 11.2359 12.1593 11.5781 12.5625C11.5828 12.5671 11.5875 12.5765 11.5875 12.5765C11.6344 12.6281 11.6813 12.6796 11.7234 12.7265C11.7609 12.764 11.7984 12.8015 11.8359 12.8343C11.8875 12.8812 11.9391 12.9328 11.9953 12.975L12.0047 12.9796L12.0187 12.975C12.075 12.9328 12.1266 12.8812 12.1781 12.839C12.2625 12.7593 12.3422 12.6703 12.4172 12.5859C12.4172 12.5859 12.4266 12.5718 12.4313 12.5671C12.6516 12.3093 12.8156 12.0281 12.9281 11.7234C12.9937 11.55 13.0406 11.3625 13.0687 11.175C13.0922 11.0343 13.1063 10.889 13.1109 10.739C13.1063 10.7203 13.0969 10.7109 13.0875 10.7109ZM12.4125 12.5156L12.3984 12.5343C12.3937 12.539 12.3891 12.5437 12.3891 12.5437C12.3281 12.614 12.2719 12.675 12.2109 12.7359C12.1969 12.75 12.1828 12.764 12.1641 12.7781C12.1125 12.8296 12.0562 12.8765 12 12.9234C11.9484 12.8765 11.8875 12.8296 11.8406 12.7828C11.8078 12.7546 11.7797 12.7218 11.7469 12.689C11.7 12.6421 11.6578 12.5953 11.6156 12.5484C11.6109 12.5437 11.6062 12.539 11.6016 12.5343C11.6016 12.5343 11.5922 12.525 11.5875 12.5156V10.6312C11.5922 10.6312 11.5922 10.6265 11.5922 10.6265C11.7656 10.5703 11.8922 10.5046 11.9719 10.4578C11.9719 10.4578 11.9906 10.4437 12 10.439C12 10.439 12.0188 10.4531 12.0281 10.4578C12.0984 10.5 12.1922 10.5515 12.3187 10.5984C12.3469 10.6078 12.3797 10.6218 12.4078 10.6265L12.4172 10.6312V12.5156H12.4125Z" fill="#BF920D"/>
</g>
<defs>
<clipPath id="clip0_939_15679">
<rect width="24" height="24" fill="white"/>
</clipPath>
</defs>
</svg>
